# xmcd
#
# Track frame offsets:
#      182
#      14847
#      32790
#      48410
#      69120
#      87492
#      105505
#      120337
#      138987
#      155045
#      169202
#      183505
# 
# Disc length: 2675 seconds
#
# Revision: 1
# Processed by: cddbd v1.4PL0 Copyright (c) Steve Scherf et al.
#
# Submitted via: FreeRIP 1.20
#
DISCID=9f0a710c
DTITLE=Chalee Tennison - This Woman's Heart
DYEAR=2000
DGENRE=Country
TTITLE0=Yes I Was
TTITLE1=Somebody Save Me
TTITLE2=I'm Healing
TTITLE3=Makin' Up With You
TTITLE4=This Woman's Heart
TTITLE5=Go Back
TTITLE6=Break It Even
TTITLE7=We Don't Have To Pray
TTITLE8=What I Tell Myself
TTITLE9=You Can't Say That
TTITLE10=I Ain't
TTITLE11=Under Your Skin
EXTD=
EXTT0=
EXTT1=
EXTT2=
EXTT3=
EXTT4=
EXTT5=
EXTT6=
EXTT7=
EXTT8=
EXTT9=
EXTT10=
EXTT11=
PLAYORDER=
